<?xml version="1.0" encoding="utf-8"?>
<!-- Generator: Adobe Illustrator 24.2.3, SVG Export Plug-In . SVG Version: 6.00 Build 0)  -->
<svg version="1.1" id="Слой_2" xmlns="http://www.w3.org/2000/svg" xmlns:xlink="http://www.w3.org/1999/xlink" x="0px" y="0px"
	 viewBox="0 0 1920 1080" style="enable-background:new 0 0 1920 1080;" xml:space="preserve">
<style type="text/css">
	.st0{fill:#5278F6;}
	.st1{fill:#D2DEFE;}
	.st2{fill:#577CF6;}
	.st3{fill:#D3DEFE;}
	.st4{fill:#567BF6;}
	.st5{fill:#587CF6;}
	.st6{fill:#5A7EF6;}
	.st7{fill:#D4E0FE;}
	.st8{fill:#D6E1FE;}
	.st9{fill:#FEFEFE;}
	.st10{fill:#F4F7FE;}
	.st11{fill:#CEDBFE;}
	.st12{fill:#F9FBFE;}
	.st13{fill:#5C80F6;}
	.st14{fill:#5D81F6;}
	.st15{fill:#5379F6;}
	.st16{fill:#D3DFFE;}
</style>
<path class="st0" d="M874.1,471.4c-3-4.3-6-8.7-8.5-13.3c-2.6-4.7-6.2-8.1-11.5-9.5c-1.9-0.5-3.9-0.8-5.9-0.8c-0.7,0-1.4,0-2.1-0.3
	c-0.9-0.4-1.2-1.1-1-1.9c0.1-0.8,0.7-1.3,1.5-1.3c8.1,0.1,15.4,2,20.2,9.3c2.1,3.2,4.1,6.5,6.1,9.7c0.4,0.7,0.9,1.4,1.4,2.1
	c0.2,0,0.4-0.1,0.5-0.1c0-2.1,0-4.2,0-6.4c0-20.5,0-41.1,0-61.6c0-1.8,0.1-3.7,0.3-5.5c0.4-3.2,1.9-4.8,5.1-5.5
	c0.6-0.1,1.3-0.2,1.9-0.2c1.2,0,2.4-0.1,3.6-0.1c56.7,0,113.4,0,170,0c1.9,0,3.8-0.1,5.7,0.3c2.7,0.6,4.1,2.1,4.6,4.8
	c0.4,1.9,0.4,3.8,0.4,5.7c0,18.5,0,36.9,0,55.4c0,2.2,0,4.5,0,6.7c0,1.5,0.3,2.8,1,4.1c0.8-0.1,1-0.8,1.3-1.3
	c1.6-2.4,3.1-4.8,4.6-7.3c4-6.5,9.9-9.5,17.3-9.9c1.2-0.1,2.4,0,3.6-0.1c0.8,0,1.4,0.3,1.6,1.1c0.2,0.9-0.3,1.5-1.1,1.9
	c-0.7,0.3-1.4,0.4-2.1,0.3c-6.5-0.2-11.4,2.8-15.5,7.6c-6.7,7.8-10.2,16.8-10.9,27.1c-0.4,6-0.3,11.8,1.3,17.6
	c1.6,5.6,4.5,10.5,8.3,15c7,8.5,12.3,17.9,15.1,28.6c3.1,12.1,2.5,24.2-0.8,36.2c-1.2,4.2-2.6,8.4-4.4,12.4c-1.1,2.4-0.9,2.8,1.3,4
	c1.2,0.6,2,1.6,2.9,2.4c2.2,2.1,3.2,2.1,5.6,0.1c1.6-1.3,2-1.3,4,0c7.4,4.9,14.7,9.9,22.1,14.9c8.8,6,17.6,11.9,26.4,17.9
	c1.5,1,2.8,2,4,3.5c3.8,4.8,3.8,11.4,0.1,16.2c-3.9,5-10.2,6.6-15.9,3.9c-1-0.5-2-1.1-2.9-1.7c-15.9-10.7-31.8-21.4-47.8-32.1
	c-0.4-0.3-0.8-0.5-1.2-0.8c-1.9-1.4-2-1.8-0.8-3.9c0.6-1.1,0.6-2-0.4-2.7c-1.7-1.3-3.5-2.6-5.3-3.8c-1.1-0.7-2.3-0.6-3.4,0
	c-0.8,0.5-1.5,1.2-2.2,1.9c-11.2,11.7-24.8,19.4-40.8,22.1c-21.6,3.7-41.2-1.2-58.6-14.6c-2-1.2-4.3-1.1-6.5-1.1
	c-31.3,0-62.5,0-93.8,0c-1.1,0-2.2,0.1-3.3-0.1c-2.1-0.3-2.3-0.7-1.4-2.8c2.1-2.4,4.3-4.7,6.3-7.1c1.3-2.5,1.5-5.2,1.5-7.9
	c0-41,0-82.1,0-123.1C875.8,475.3,875.6,473.2,874.1,471.4z"/>
<path class="st1" d="M973.3,675.3c-38,0-75.9,0-113.9,0c-0.7,0-1.4,0-2.2,0c-1.7-0.1-2.4-0.7-2.6-2.3c-0.2-1.2,0.7-2.6,1.9-2.9
	c1.1-0.3,2.1-0.7,3.3-0.6c0.4,0,0.8,0,1.2,0c75.1,0,150.2,0,225.3,0c0.8,0,1.6,0,2.4,0c1,0,1.8,0.5,2.6,1.1c0.9,0.7,1.3,1.7,0.9,2.8
	c-0.4,1-1.1,1.8-2.3,1.9c-0.8,0.1-1.6,0-2.4,0C1049.5,675.3,1011.4,675.3,973.3,675.3z"/>
<path class="st2" d="M868.9,615.2c-0.2,0.8-1.1,1.1-1.2,2.1c0.7,0.7,1.6,0.4,2.5,0.4c10,0,20,0,30,0c22.9,0,45.7,0,68.6,0
	c1.8,0,3.4,0.2,4.3,1.9c-32.2,0-64.4,0-96.6-0.1c-5.2,0-10.4-0.2-15.5-0.8c-6.8-0.9-11.6-6-12.2-12.8c-0.4-4.5-0.3-9.1-0.3-13.7
	c0-11.7,0-23.5,0-35.2c0-5.1,1.3-6.4,6.3-6.4c5.3,0,10.5,0,15.8,0c0.7,0,1.4,0,2.2-0.1c1.2-0.1,1.9-0.8,2-2c0.1-0.9,0.1-1.8,0.1-2.6
	c0-22.9-0.1-45.7,0-68.6c0-2-0.4-4-0.7-5.9c1.8,0.8,2.3,2.3,2.5,4.1c0.1,0.6,0,1.3,0,1.9c0,41.1,0,82.2,0,123.2c0,2.4-0.6,4.7-1.1,7
	c-0.2,0.8-0.5,1.5-1.4,1.8c-0.5-0.5-0.4-1.2-0.4-1.8c0.5-16.5,0.1-33,0.2-49.6c0-2.8-0.6-3.4-3.4-3.4c-4.7-0.1-9.4-0.1-14.1,0
	c-2.7,0.1-3.5,0.8-3.5,3.5c-0.1,15.6-0.1,31.1,0,46.7c0.1,6.7,6,10.2,12.5,10C866.6,614.8,867.8,614.3,868.9,615.2z"/>
<path class="st3" d="M973.5,692c-15.7,0-31.5,0-47.2,0c-0.6,0-1.3,0-1.9,0c-1.6-0.1-2.5-0.7-2.6-1.9c-0.3-1.8,0.3-3,2-3.6
	c0.7-0.3,1.4-0.2,2.1-0.2c32,0,63.9,0,95.9,0c1,0,1.9,0.1,2.8,0.5c1.8,0.9,1.8,3.8,0,4.7c-1,0.5-2,0.5-3,0.5c-10.9,0-21.9,0-32.8,0
	C983.5,692,978.5,692,973.5,692z"/>
<path class="st4" d="M847.5,341.2c0,7.5-5.8,13.3-13.2,13.2c-7.4,0-13.4-6.1-13.2-13.6c0.2-8.1,6.3-13.1,13.4-13
	C842.1,328,847.5,333.5,847.5,341.2z"/>
<path class="st5" d="M1150.1,460.9c6.8,0.2,12.6,5.4,12.6,12.7c0,6.5-6.3,12.6-12.7,12.6c-6.6-0.1-12.5-6.2-12.4-12.8
	C1137.7,466.6,1143.4,460.9,1150.1,460.9z"/>
<path class="st6" d="M812.5,625.8c0-0.9-0.1-1.8,0-2.6c0.2-1.3,0.7-1.7,1.8-1.7c1.2,0,1.8,0.6,1.8,1.8c0.1,1.4,0,2.7,0.1,4.1
	c0.1,2.8,0.9,3.7,3.8,3.8c0.8,0,1.6-0.2,2.4-0.3c0.7-0.1,1.4-0.1,2.1,0.2c0.6,0.3,1.1,0.8,1.1,1.4c0,0.8-0.4,1.4-1.2,1.6
	c-1.2,0.3-2.3,0.5-3.6,0.4c-0.6,0-1.3-0.1-1.9-0.1c-1.9,0.1-2.7,0.9-2.8,2.8c-0.1,1.5,0.1,3,0.1,4.5c-0.1,1.5-0.8,2.1-2.1,2
	c-1-0.1-1.6-0.7-1.7-1.7c-0.1-0.8,0-1.6,0.1-2.4c0-0.6,0.2-1.3,0.1-1.9c-0.1-2.6-1.2-3.5-3.8-3.3c-1.1,0.1-2.2,0.1-3.3,0
	c-0.5-0.1-1.1-0.2-1.6-0.5c-0.6-0.3-0.8-0.9-0.7-1.6c0.1-0.6,0.4-1,1-1.2c1.3-0.4,2.5-0.4,3.8-0.2c0.8,0.1,1.6,0.3,2.4,0
	c1.5-0.4,2.1-1.1,2.2-2.7C812.5,627.4,812.4,626.6,812.5,625.8C812.4,625.8,812.5,625.8,812.5,625.8z"/>
<path class="st7" d="M751,476.2c4.8-0.1,8.1,4.1,8,8c-0.1,4.1-3.4,8.4-8,8.3c-4.8-0.1-8.5-4.5-8.4-7.9
	C742.9,479.9,746.4,476.2,751,476.2z"/>
<path class="st8" d="M1115.6,396.6c-0.9,0.1-1.3-0.5-1.4-1.3c-0.1-0.6-0.1-1.3-0.2-1.9c-0.2-1.5-1.1-2.4-2.6-2.6
	c-0.6-0.1-1.3,0-1.9-0.1c-0.7-0.1-1.1-0.6-1.2-1.3c0-0.8,0.4-1.4,1.2-1.5c0.6-0.1,1.1,0,1.7-0.1c2-0.4,2.7-1.2,2.8-3.2
	c0.2-2,0.8-2.9,1.8-2.8c1,0.1,1.4,1,1.5,2.9c0.1,2.3,0.6,2.8,2.9,2.8c1,0,1.9,0.1,2.7,0.7c0.6,0.4,0.7,1,0.6,1.7
	c-0.2,0.6-0.6,0.9-1.2,1c-0.5,0-1,0-1.4,0c-2.5,0.1-3.4,1-3.5,3.5C1117.3,396.1,1116.9,396.6,1115.6,396.6z"/>
<path class="st9" d="M970.8,389.4c28.5,0,57.1,0,85.6,0c1.3,0,2.6,0,3.8,0.2c1.7,0.2,2.3,1,2.5,2.7c0.1,1.5,0.1,3,0.1,4.6
	c0,32.5,0,65.1,0,97.6c0,1.5,0.2,3,0.1,4.5c-0.2,2-0.6,2.2-2.3,1.1c-7.3-4.8-15.2-8.5-23.8-10.5c-24.5-5.8-46.6-0.9-66.1,15.1
	c-14.2,11.6-22.6,26.8-25.5,44.9c-3.6,22.3,2.3,42.2,16.5,59.8c1.3,1.6,2.7,3.1,4.1,4.7c0.3,0.3,0.7,0.5,0.5,1
	c-0.2,0.5-0.7,0.7-1.1,0.7c-1,0-1.9-0.2-2.9-0.2c-11.2,0-22.4,0-33.6,0c-16.5,0-32.9,0-49.4,0c-1,0-1.9,0-2.9-0.1
	c-1.3-0.2-1.6-0.8-1.1-2c0.2-0.4,0.4-0.9,0.7-1.2c1.6-2.2,2.2-4.8,2.2-7.5c0-1.9,0-3.8,0-5.8c0-67.4,0-134.8,0-202.1
	c0-1.4,0-2.9,0.1-4.3c0.2-1.9,0.8-2.6,2.6-2.9c1.2-0.2,2.4-0.2,3.6-0.2C913.4,389.4,942.1,389.4,970.8,389.4z"/>
<path class="st10" d="M948,561.1c-0.7-37.5,30.7-70.6,70.6-70.5c39.6,0.1,70.7,32.7,70.7,70.4c0,37.5-30,71-71,71
	C979,631.9,947.2,599.2,948,561.1z"/>
<path class="st1" d="M868.9,615.2c-0.8,0.1-1.6,0-2.4,0.2c-3.4,0.9-6.5-0.3-9.4-1.9c-3.4-1.9-5-5-5-8.9c0-7.9-0.1-15.8-0.1-23.7
	c0-7.4,0-14.8,0-22.3c0-0.6,0-1.1,0-1.7c0.1-1.9,0.9-2.7,2.8-3c0.5-0.1,1,0,1.4,0c4.8,0,9.6,0,14.4,0c0.7,0,1.4,0,2.1,0.2
	c1.3,0.2,2,0.9,2,2.3c0,0.6,0,1.3,0,1.9c0,15.2-0.1,30.5,0,45.7c0,1.9-0.5,3.6-0.6,5.4C872.5,611.5,870.9,613.5,868.9,615.2z"/>
<path class="st1" d="M1151.4,642.6c-0.1,5.3-3.3,9.3-8.1,10.3c-2.2,0.5-4.3-0.1-6.1-1.3c-7.4-4.9-14.8-9.7-22.2-14.7
	c-5.3-3.5-10.6-7.1-15.9-10.7c-0.7-0.4-1.4-0.9-2-1.3c-1.4-1.1-1.6-1.8-0.7-3.2c2.7-4.1,5.5-8.2,8.3-12.3c1-1.4,1.7-1.5,3.3-0.6
	c1.3,0.8,2.5,1.7,3.8,2.5c11.8,8,23.5,15.9,35.3,23.9c1.1,0.7,2.1,1.5,2.8,2.6C1150.9,639.4,1151.6,640.9,1151.4,642.6z"/>
<path class="st11" d="M1088.2,617.4c0-0.8,0.4-1.5,0.8-2.2c2.6-3.8,5.1-7.7,7.8-11.5c1-1.5,1.4-1.5,2.9-0.6c3.3,2.1,3.4,2.3,1.3,5.5
	c-2.4,3.7-4.9,7.3-7.3,10.9c-0.6,0.9-1.3,1.8-2.7,1.3C1089.2,620.2,1088.1,618.9,1088.2,617.4z"/>
<path class="st12" d="M1091.4,604.6c0,0.2,0,0.4-0.1,0.5c-1.1,1.7-1.8,3.8-3.4,5.2c-1.3,1.1-2.2,1.2-3.7,0.3
	c-1.8-1.1-3.4-2.4-4.9-3.8c-0.9-0.8-1.1-1.7-0.4-2.7c1.1-1.7,2.3-3.3,3.7-4.7c0.5-0.5,1-1,1.9-0.5c2.5,1.3,4.6,3.1,6.5,5.2
	C1091.2,604.2,1091.3,604.4,1091.4,604.6z"/>
<path class="st13" d="M927.2,450.3c-2.4-0.2-4.8-0.5-7.1-1.2c-1-0.3-1.9-0.8-2.8-1.4c-1-0.8-1.3-1.6-0.8-2.4
	c0.6-0.9,1.4-0.9,2.3-0.6c1.8,0.7,3.6,1.4,5.5,1.7c6.5,1.1,11.5-1.4,15.6-6.2c0.5-0.5,0.9-1.1,1.4-1.7c0.6-0.6,1.3-0.9,2.1-0.3
	c0.7,0.6,0.9,1.3,0.6,2.1c-0.2,0.4-0.4,0.9-0.7,1.3C939.5,447.3,934,450,927.2,450.3z"/>
<path class="st14" d="M1017.7,450.4c-6.6-0.4-12.1-2.8-16-8.5c-0.5-0.7-0.9-1.3-1-2.1c0-0.8,0.4-1.3,1.1-1.7c0.6-0.3,1.1,0,1.5,0.4
	c0.4,0.4,0.7,0.9,1.1,1.3c1.4,1.6,2.8,3.1,4.5,4.3c4.5,3,9.3,3.4,14.4,1.7c0.9-0.3,1.8-0.7,2.7-1c0.9-0.3,1.7-0.2,2.3,0.8
	c0.6,1,0.1,1.7-0.7,2.2c-0.8,0.6-1.8,1.1-2.8,1.4C1022.6,449.9,1020.2,450.3,1017.7,450.4z"/>
<path class="st13" d="M940.3,448.8c2.6,0,4.4,1.7,4.3,4.3c0,2.5-1.9,4.3-4.4,4.3c-2.6,0-4.2-1.7-4.2-4.4
	C936,450.3,937.6,448.8,940.3,448.8z"/>
<path class="st13" d="M1000.7,453c0-2.7,1.5-4.2,4.1-4.1c2.6,0,4.5,1.8,4.5,4.2c0,2.7-2,4.5-4.6,4.4
	C1002.2,457.4,1000.7,455.8,1000.7,453z"/>
<path class="st15" d="M1018.4,501.5c32.6-0.3,59.3,26.7,59.3,58.9c0,32.7-26.6,59.3-59.1,59.4c-30.4,0-59.3-23.2-59.3-59
	C959.3,523.8,989.2,501.2,1018.4,501.5z"/>
<path class="st9" d="M962.8,560.1c-0.4-30.2,25.6-55.1,55.5-55.3c30.6-0.2,56,25.7,56,56c0,30.3-25.3,55.5-55.6,55.5
	C988.2,616.3,962.6,592.4,962.8,560.1z"/>
<path class="st1" d="M1017.8,578.4c-0.9,0-1.8,0-2.6,0c-2.4-0.1-3.5-1.4-3.3-3.8c0.6-5.1,2.3-9.7,6.2-13.3c2.7-2.6,5.5-5.2,8-8
	c3.2-3.6,4-7.8,2.3-12.2c-1.5-3.8-4.5-5.7-8.5-5.8c-2.5-0.1-4.9,0.2-7.2,1.3c-3.7,1.7-5,4.9-5.6,8.6c-0.1,0.5,0,1.1,0,1.7
	c-0.1,1.1-0.8,1.9-1.9,1.8c-2.4-0.1-4.7,0.8-7.1,0.1c-2.2-0.6-2.8-0.9-2.5-3.3c0.8-6.9,3.5-12.8,9.7-16.5c5.4-3.2,11.3-4.4,17.5-3.7
	c7.3,0.7,13.1,4.4,16.4,11c3.2,6.4,2.9,12.9-0.7,19.2c-1.7,3-4.2,5.1-6.9,7.2c-3.1,2.4-5.7,5.3-7.2,9.1c-0.5,1.3-0.6,2.6-0.9,3.9
	c-0.4,2-1.2,2.7-3.2,2.8C1019.4,578.4,1018.6,578.4,1017.8,578.4C1017.8,578.4,1017.8,578.4,1017.8,578.4z"/>
<path class="st16" d="M1009.9,590.4c-0.4-2.7,1.8-5.7,4.6-6.9c4.4-1.8,9.6,0.8,10.7,5.5c0.8,3.6-2.5,8-6.5,8.6
	c-3.6,0.5-6.9-1.6-8.3-4.4C1009.9,592.2,1009.9,591.3,1009.9,590.4z"/>
</svg>
