<svg xmlns="http://www.w3.org/2000/svg" viewBox="0 0 1920 1080"><defs><style>.a{fill:#e5e9ff;opacity:0.2;}</style></defs><path class="a" d="M1920,219.39,1423.1,460.85,1041.18,277,1616.79,0h-85.61L998.41,256.22,474.53,0H389.05L955.64,277,590.8,454.5,0,165.3v41.12L972.72,679.9l-164,79.29L0,366.77v41.56L766,779.94,140.9,1080h85.47L501.45,949.64,641.72,1020,948.61,870.63,1379.73,1080h84.77l-105.65-48.48,164.88-79.72L1794.12,1080h83.44a48.42,48.42,0,0,0,5.57-.35L1468.57,882.38l366.77-176,84.66,40v-41.9L1465.87,481.61,1920,260.9ZM633.57,475.27,998.41,297.75l381.92,183.86L1015.49,659.13ZM641.4,978l-97.22-49.09L808.69,800.74l97.23,49.09ZM1481,931l-164.81,79.68L851.43,780l164.06-79.33ZM1790.64,684.1,1425.8,861.61,1058.25,679.9,1423.1,502.38Z"/></svg>